<svg width="174" height="53" viewBox="0 0 174 53" fill="none" xmlns="http://www.w3.org/2000/svg">
<mask id="path-1-inside-1_8384_5568" fill="white">
<path fill-rule="evenodd" clip-rule="evenodd" d="M0.298828 26.3081C0.298828 11.9487 11.9394 0.308105 26.2988 0.308105H97.6887C108.505 0.308105 117.778 6.9123 121.696 16.3081H123.992C127.91 6.9123 137.184 0.308105 148 0.308105C162.359 0.308105 174 11.9487 174 26.3081C174 40.6675 162.359 52.3081 148 52.3081C137.969 52.3081 129.265 46.6277 124.928 38.3081H120.76C116.424 46.6277 107.72 52.3081 97.6887 52.3081H26.2988C11.9394 52.3081 0.298828 40.6675 0.298828 26.3081Z"/>
</mask>
<path fill-rule="evenodd" clip-rule="evenodd" d="M0.298828 26.3081C0.298828 11.9487 11.9394 0.308105 26.2988 0.308105H97.6887C108.505 0.308105 117.778 6.9123 121.696 16.3081H123.992C127.91 6.9123 137.184 0.308105 148 0.308105C162.359 0.308105 174 11.9487 174 26.3081C174 40.6675 162.359 52.3081 148 52.3081C137.969 52.3081 129.265 46.6277 124.928 38.3081H120.76C116.424 46.6277 107.72 52.3081 97.6887 52.3081H26.2988C11.9394 52.3081 0.298828 40.6675 0.298828 26.3081Z" fill="#3579F6"/>
<path d="M121.696 16.3081L120.312 16.8854L120.696 17.8081H121.696V16.3081ZM123.992 16.3081V17.8081H124.992L125.377 16.8854L123.992 16.3081ZM124.928 38.3081L126.259 37.6148L125.838 36.8081H124.928V38.3081ZM120.76 38.3081V36.8081H119.85L119.43 37.6148L120.76 38.3081ZM26.2988 -1.19189C11.111 -1.19189 -1.20117 11.1203 -1.20117 26.3081H1.79883C1.79883 12.7771 12.7678 1.80811 26.2988 1.80811V-1.19189ZM97.6887 -1.19189H26.2988V1.80811H97.6887V-1.19189ZM123.08 15.7308C118.937 5.79581 109.131 -1.19189 97.6887 -1.19189V1.80811C107.878 1.80811 116.618 8.02879 120.312 16.8854L123.08 15.7308ZM123.992 14.8081H121.696V17.8081H123.992V14.8081ZM125.377 16.8854C129.07 8.02879 137.81 1.80811 148 1.80811V-1.19189C136.557 -1.19189 126.751 5.79581 122.608 15.7308L125.377 16.8854ZM148 1.80811C161.531 1.80811 172.5 12.7771 172.5 26.3081H175.5C175.5 11.1203 163.187 -1.19189 148 -1.19189V1.80811ZM172.5 26.3081C172.5 39.8391 161.531 50.8081 148 50.8081V53.8081C163.187 53.8081 175.5 41.4959 175.5 26.3081H172.5ZM148 50.8081C138.55 50.8081 130.347 45.4582 126.259 37.6148L123.598 39.0014C128.183 47.7972 137.388 53.8081 148 53.8081V50.8081ZM120.76 39.8081H124.928V36.8081H120.76V39.8081ZM97.6887 53.8081C108.3 53.8081 117.506 47.7972 122.09 39.0014L119.43 37.6148C115.342 45.4582 107.139 50.8081 97.6887 50.8081V53.8081ZM26.2988 53.8081H97.6887V50.8081H26.2988V53.8081ZM-1.20117 26.3081C-1.20117 41.4959 11.111 53.8081 26.2988 53.8081V50.8081C12.7678 50.8081 1.79883 39.8391 1.79883 26.3081H-1.20117Z" fill="url(#paint0_linear_8384_5568)" fill-opacity="0.34" mask="url(#path-1-inside-1_8384_5568)"/>
<defs>
<linearGradient id="paint0_linear_8384_5568" x1="97.9996" y1="0.308105" x2="97.9996" y2="52.3081" gradientUnits="userSpaceOnUse">
<stop stop-color="white"/>
<stop offset="1" stop-color="white" stop-opacity="0"/>
</linearGradient>
</defs>
</svg>
